<svg width="233.003" height="36.44" viewBox="0 0 233.003 36.44" xmlns="http://www.w3.org/2000/svg"><g id="svgGroup" stroke-linecap="round" fill-rule="evenodd" font-size="9pt" stroke="#06575c" stroke-width="0.35mm" fill="#0c9ea6" style="stroke:#06575c;stroke-width:0.35mm;fill:#0c9ea6"><path d="M 0 23.414 L 0 0.126 L 6.179 0.126 L 6.179 23.161 A 12.726 12.726 0 0 0 6.238 24.411 A 11.384 11.384 0 0 0 6.269 24.688 Q 6.348 25.331 6.609 25.771 A 1.962 1.962 0 0 0 6.685 25.889 Q 7.003 26.349 7.704 26.359 A 2.186 2.186 0 0 0 7.732 26.359 A 1.867 1.867 0 0 0 8.134 26.319 Q 8.379 26.265 8.559 26.138 A 0.987 0.987 0 0 0 8.798 25.898 Q 9.082 25.497 9.18 24.883 A 3.812 3.812 0 0 0 9.205 24.697 A 13.904 13.904 0 0 0 9.285 23.359 A 15.347 15.347 0 0 0 9.286 23.161 L 9.286 0.126 L 15.465 0.126 L 15.465 23.414 Q 15.465 26.24 14.667 28.171 A 6.838 6.838 0 0 1 13.586 29.981 Q 11.925 31.953 8.628 32.182 A 12.921 12.921 0 0 1 7.732 32.212 Q 3.758 32.212 1.879 29.981 A 7.13 7.13 0 0 1 0.595 27.626 Q 0.242 26.574 0.098 25.288 A 16.929 16.929 0 0 1 0 23.414 Z M 60.884 36.44 L 53.585 36.44 L 53.585 32.339 L 56.692 32.339 A 1.507 1.507 0 0 0 56.941 32.32 Q 57.382 32.246 57.397 31.877 A 0.648 0.648 0 0 0 57.397 31.851 Q 57.397 31.598 57.343 31.327 L 53.097 4.824 L 59.294 4.824 L 61.101 24.769 L 63.232 4.824 L 69.465 4.824 L 64.443 33.333 Q 64.251 34.422 63.808 35.134 A 3.022 3.022 0 0 1 63.404 35.654 A 2.264 2.264 0 0 1 62.586 36.175 Q 61.9 36.44 60.884 36.44 Z M 133.402 31.923 L 125.923 31.923 L 121.569 4.824 L 128.055 4.824 L 129.608 22.926 L 131.361 4.824 L 137.829 4.824 L 133.402 31.923 Z M 104.189 23.089 L 104.189 12.195 Q 104.189 9.301 105.462 7.484 A 5.878 5.878 0 0 1 106.357 6.477 Q 108.347 4.694 111.707 4.548 A 14.065 14.065 0 0 1 112.319 4.535 A 11.5 11.5 0 0 1 115.36 4.901 Q 118.84 5.857 119.778 9.308 A 11.022 11.022 0 0 1 120.124 12.195 L 120.124 14.164 A 282.771 282.771 0 0 1 120.12 15.617 Q 120.11 17.589 120.07 18.588 A 20.773 20.773 0 0 1 120.051 18.97 L 110.657 18.97 L 110.657 24.209 Q 110.657 24.932 110.747 25.627 A 3.216 3.216 0 0 0 110.858 26.152 Q 110.949 26.451 111.097 26.688 A 1.907 1.907 0 0 0 111.154 26.774 A 1.011 1.011 0 0 0 111.749 27.176 Q 111.926 27.222 112.138 27.226 A 2.151 2.151 0 0 0 112.174 27.226 A 1.759 1.759 0 0 0 112.652 27.166 Q 113.252 26.997 113.439 26.35 A 5.505 5.505 0 0 0 113.588 25.651 Q 113.643 25.288 113.669 24.863 A 13.184 13.184 0 0 0 113.692 24.064 L 113.692 21.463 L 120.124 21.463 L 120.124 22.999 Q 120.124 25.322 119.684 27.069 A 10.213 10.213 0 0 1 119.374 28.084 A 6.058 6.058 0 0 1 118.225 30.048 A 5.612 5.612 0 0 1 116.845 31.174 A 6.726 6.726 0 0 1 115.185 31.846 Q 113.817 32.212 111.994 32.212 Q 109.908 32.212 108.434 31.648 A 5.912 5.912 0 0 1 107.387 31.128 A 5.928 5.928 0 0 1 105.026 28.254 A 7.404 7.404 0 0 1 104.93 28.003 A 11.519 11.519 0 0 1 104.404 25.944 Q 104.243 24.964 104.202 23.848 A 21.012 21.012 0 0 1 104.189 23.089 Z M 139.31 23.089 L 139.31 12.195 Q 139.31 9.301 140.583 7.484 A 5.878 5.878 0 0 1 141.478 6.477 Q 143.468 4.694 146.829 4.548 A 14.065 14.065 0 0 1 147.44 4.535 A 11.5 11.5 0 0 1 150.481 4.901 Q 153.961 5.857 154.899 9.308 A 11.022 11.022 0 0 1 155.245 12.195 L 155.245 14.164 A 282.771 282.771 0 0 1 155.241 15.617 Q 155.231 17.589 155.191 18.588 A 20.773 20.773 0 0 1 155.172 18.97 L 145.778 18.97 L 145.778 24.209 Q 145.778 24.932 145.868 25.627 A 3.216 3.216 0 0 0 145.979 26.152 Q 146.07 26.451 146.218 26.688 A 1.907 1.907 0 0 0 146.275 26.774 A 1.011 1.011 0 0 0 146.87 27.176 Q 147.047 27.222 147.259 27.226 A 2.151 2.151 0 0 0 147.295 27.226 A 1.759 1.759 0 0 0 147.773 27.166 Q 148.373 26.997 148.56 26.35 A 5.505 5.505 0 0 0 148.709 25.651 Q 148.764 25.288 148.79 24.863 A 13.184 13.184 0 0 0 148.813 24.064 L 148.813 21.463 L 155.245 21.463 L 155.245 22.999 Q 155.245 25.322 154.805 27.069 A 10.213 10.213 0 0 1 154.495 28.084 A 6.058 6.058 0 0 1 153.346 30.048 A 5.612 5.612 0 0 1 151.966 31.174 A 6.726 6.726 0 0 1 150.307 31.846 Q 148.938 32.212 147.115 32.212 Q 145.029 32.212 143.555 31.648 A 5.912 5.912 0 0 1 142.508 31.128 A 5.928 5.928 0 0 1 140.147 28.254 A 7.404 7.404 0 0 1 140.051 28.003 A 11.519 11.519 0 0 1 139.525 25.944 Q 139.364 24.964 139.324 23.848 A 21.012 21.012 0 0 1 139.31 23.089 Z M 203.482 23.089 L 203.482 12.195 Q 203.482 9.301 204.755 7.484 A 5.878 5.878 0 0 1 205.65 6.477 Q 207.64 4.694 211 4.548 A 14.065 14.065 0 0 1 211.612 4.535 A 11.5 11.5 0 0 1 214.653 4.901 Q 218.133 5.857 219.071 9.308 A 11.022 11.022 0 0 1 219.417 12.195 L 219.417 14.164 A 282.771 282.771 0 0 1 219.413 15.617 Q 219.403 17.589 219.363 18.588 A 20.773 20.773 0 0 1 219.344 18.97 L 209.95 18.97 L 209.95 24.209 Q 209.95 24.932 210.04 25.627 A 3.216 3.216 0 0 0 210.151 26.152 Q 210.242 26.451 210.39 26.688 A 1.907 1.907 0 0 0 210.447 26.774 A 1.011 1.011 0 0 0 211.042 27.176 Q 211.218 27.222 211.431 27.226 A 2.151 2.151 0 0 0 211.467 27.226 A 1.759 1.759 0 0 0 211.945 27.166 Q 212.545 26.997 212.732 26.35 A 5.505 5.505 0 0 0 212.881 25.651 Q 212.936 25.288 212.962 24.863 A 13.184 13.184 0 0 0 212.985 24.064 L 212.985 21.463 L 219.417 21.463 L 219.417 22.999 Q 219.417 25.322 218.977 27.069 A 10.213 10.213 0 0 1 218.667 28.084 A 6.058 6.058 0 0 1 217.518 30.048 A 5.612 5.612 0 0 1 216.138 31.174 A 6.726 6.726 0 0 1 214.478 31.846 Q 213.11 32.212 211.287 32.212 Q 209.201 32.212 207.727 31.648 A 5.912 5.912 0 0 1 206.68 31.128 A 5.928 5.928 0 0 1 204.319 28.254 A 7.404 7.404 0 0 1 204.223 28.003 A 11.519 11.519 0 0 1 203.697 25.944 Q 203.536 24.964 203.495 23.848 A 21.012 21.012 0 0 1 203.482 23.089 Z M 41.083 15.79 L 45.094 14.417 L 45.094 11.635 Q 45.094 9.449 43.667 9.449 Q 42.366 9.449 42.366 11.219 L 42.366 12.845 L 36.079 12.845 Q 36.067 12.748 36.063 12.614 A 4.7 4.7 0 0 1 36.061 12.475 L 36.061 11.96 A 13.492 13.492 0 0 1 36.203 9.923 Q 36.582 7.451 37.967 6.224 A 5.722 5.722 0 0 1 39.796 5.162 Q 41.383 4.574 43.698 4.537 A 19.651 19.651 0 0 1 44.01 4.535 Q 46.178 4.535 47.894 5.302 Q 49.61 6.07 50.613 7.57 A 5.788 5.788 0 0 1 51.463 9.659 A 8.108 8.108 0 0 1 51.616 11.273 L 51.616 31.923 L 45.184 31.923 L 45.184 28.708 A 6.374 6.374 0 0 1 44.723 29.913 Q 44.332 30.679 43.752 31.203 A 3.979 3.979 0 0 1 43.63 31.309 A 3.758 3.758 0 0 1 41.155 32.212 A 7.794 7.794 0 0 1 39.849 32.11 Q 39.147 31.99 38.588 31.731 A 3.588 3.588 0 0 1 37.714 31.165 A 4.921 4.921 0 0 1 36.463 29.407 A 6.693 6.693 0 0 1 36.097 28.292 A 15.34 15.34 0 0 1 35.772 26.345 Q 35.663 25.311 35.663 24.155 A 20.749 20.749 0 0 1 35.721 22.559 Q 35.781 21.781 35.904 21.118 A 9.081 9.081 0 0 1 36.151 20.099 Q 36.639 18.518 37.822 17.506 Q 39.005 16.495 41.083 15.79 Z M 17.615 23.306 L 17.615 11.526 Q 17.615 9.234 18.212 7.583 A 7.046 7.046 0 0 1 18.726 6.468 A 3.694 3.694 0 0 1 21.405 4.627 A 6.063 6.063 0 0 1 22.493 4.535 A 7.427 7.427 0 0 1 23.634 4.617 Q 24.792 4.797 25.519 5.375 A 4.869 4.869 0 0 1 26.653 6.682 A 6.519 6.519 0 0 1 27.154 7.714 L 27.154 0.126 L 33.73 0.126 L 33.73 31.923 L 27.154 31.923 L 27.154 29.051 Q 26.651 30.408 25.845 31.237 A 4.489 4.489 0 0 1 25.718 31.363 A 2.87 2.87 0 0 1 24.582 32.013 Q 24.146 32.15 23.621 32.193 A 6.103 6.103 0 0 1 23.125 32.212 A 8.342 8.342 0 0 1 21.95 32.135 Q 20.876 31.982 20.144 31.526 A 4.207 4.207 0 0 1 18.5 29.629 A 8.044 8.044 0 0 1 18.029 28.226 A 11.068 11.068 0 0 1 17.786 26.792 A 30.951 30.951 0 0 1 17.639 24.668 A 37.569 37.569 0 0 1 17.615 23.306 Z M 191.721 36.44 L 185.145 36.44 L 185.145 4.824 L 191.721 4.824 L 191.721 7.714 Q 192.317 6.215 193.374 5.375 A 3.481 3.481 0 0 1 194.496 4.793 Q 194.991 4.636 195.589 4.574 A 7.939 7.939 0 0 1 196.4 4.535 A 5.678 5.678 0 0 1 197.839 4.705 A 3.589 3.589 0 0 1 200.149 6.468 A 7.666 7.666 0 0 1 200.896 8.387 Q 201.242 9.768 201.242 11.526 L 201.242 24.859 A 12.66 12.66 0 0 1 201.076 26.952 A 9.944 9.944 0 0 1 200.655 28.608 Q 200.067 30.279 198.812 31.246 Q 197.624 32.16 195.748 32.21 A 8.218 8.218 0 0 1 195.533 32.212 A 3.503 3.503 0 0 1 192.572 30.675 Q 192.156 30.107 191.836 29.328 A 8.815 8.815 0 0 1 191.721 29.033 L 191.721 36.44 Z M 94.795 31.923 L 86.267 31.923 L 86.267 0.126 L 95.011 0.126 Q 97.485 0.126 99.077 1.116 A 5.18 5.18 0 0 1 100.178 2.032 Q 101.913 3.938 101.913 7.606 L 101.913 22.493 Q 101.913 25.432 101.243 27.5 A 8.404 8.404 0 0 1 100.332 29.466 Q 98.751 31.923 94.795 31.923 Z M 228.341 31.923 L 221.765 31.923 L 221.765 4.824 L 228.341 4.824 L 228.341 7.841 A 5.073 5.073 0 0 1 228.992 6.441 A 4.326 4.326 0 0 1 230.003 5.384 A 4.382 4.382 0 0 1 231.759 4.618 A 6.173 6.173 0 0 1 233.003 4.499 L 233.003 9.9 A 9.094 9.094 0 0 0 232.363 9.925 Q 231.794 9.965 231.106 10.072 Q 230.091 10.23 229.306 10.495 A 7.62 7.62 0 0 0 229.172 10.542 A 3.563 3.563 0 0 0 228.89 10.656 Q 228.416 10.874 228.351 11.123 A 0.314 0.314 0 0 0 228.341 11.201 L 228.341 31.923 Z M 76.945 31.923 L 70.387 31.923 L 77.794 0 L 84.37 0 L 76.945 31.923 Z M 164.17 31.923 L 157.593 31.923 L 157.593 0.126 L 164.17 0.126 L 164.17 31.923 Z M 166.554 23.812 L 166.554 12.936 A 11.063 11.063 0 0 1 166.844 10.331 A 7.644 7.644 0 0 1 168.704 6.82 Q 170.854 4.535 174.648 4.535 A 10.233 10.233 0 0 1 177.123 4.817 A 6.99 6.99 0 0 1 180.61 6.82 A 7.706 7.706 0 0 1 182.523 10.562 A 11.272 11.272 0 0 1 182.76 12.936 L 182.76 23.812 A 12.571 12.571 0 0 1 182.372 27.085 Q 180.985 32.212 174.648 32.212 Q 168.193 32.212 166.886 26.868 A 12.9 12.9 0 0 1 166.554 23.812 Z M 92.663 5.691 L 92.663 26.305 L 93.765 26.305 A 2.613 2.613 0 0 0 94.448 26.223 Q 95.229 26.011 95.439 25.246 A 2.414 2.414 0 0 0 95.517 24.606 L 95.517 8.202 A 9.343 9.343 0 0 0 95.497 7.561 Q 95.424 6.512 95.093 6.152 A 1.079 1.079 0 0 0 94.731 5.904 Q 94.251 5.691 93.367 5.691 L 92.663 5.691 Z M 176.166 25.148 L 176.166 11.906 A 5.524 5.524 0 0 0 176.112 11.101 Q 175.881 9.539 174.648 9.539 A 1.27 1.27 0 0 0 173.437 10.257 Q 173.13 10.843 173.13 11.906 L 173.13 25.148 A 3.816 3.816 0 0 0 173.18 25.781 Q 173.239 26.134 173.37 26.423 A 2.101 2.101 0 0 0 173.483 26.639 A 1.162 1.162 0 0 0 174.314 27.198 A 1.88 1.88 0 0 0 174.648 27.226 A 1.759 1.759 0 0 0 175.101 27.172 A 1.142 1.142 0 0 0 175.813 26.639 A 2.325 2.325 0 0 0 176.078 25.973 Q 176.166 25.6 176.166 25.148 Z M 27.154 23.757 L 27.154 12.357 A 6.517 6.517 0 0 0 26.874 10.469 Q 26.627 9.649 25.853 9.552 A 1.745 1.745 0 0 0 25.636 9.539 Q 24.649 9.539 24.351 10.325 A 1.617 1.617 0 0 0 24.317 10.424 A 6.204 6.204 0 0 0 24.073 11.718 A 7.55 7.55 0 0 0 24.046 12.357 L 24.046 23.757 Q 24.046 25.702 24.556 26.533 A 1.172 1.172 0 0 0 25.6 27.154 A 1.759 1.759 0 0 0 26.071 27.095 A 1.129 1.129 0 0 0 26.838 26.413 A 2.646 2.646 0 0 0 26.976 25.969 Q 27.146 25.228 27.154 23.883 A 22.497 22.497 0 0 0 27.154 23.757 Z M 194.684 23.667 L 194.684 13.08 A 17.936 17.936 0 0 0 194.656 12.046 Q 194.629 11.577 194.575 11.171 A 8.225 8.225 0 0 0 194.476 10.578 Q 194.268 9.575 193.256 9.575 A 1.602 1.602 0 0 0 192.744 9.651 Q 192.257 9.815 192.048 10.332 A 1.849 1.849 0 0 0 191.965 10.596 A 8.029 8.029 0 0 0 191.807 11.498 Q 191.721 12.211 191.721 13.08 L 191.721 23.667 A 14.755 14.755 0 0 0 191.755 24.702 Q 191.812 25.513 191.965 26.151 A 1.611 1.611 0 0 0 192.156 26.63 Q 192.493 27.172 193.256 27.172 A 1.503 1.503 0 0 0 193.737 27.1 Q 194.323 26.903 194.476 26.16 Q 194.633 25.395 194.671 24.362 A 18.77 18.77 0 0 0 194.684 23.667 Z M 45.076 25.076 L 45.076 17.524 Q 43.917 17.994 43.206 18.675 A 4.03 4.03 0 0 0 42.998 18.888 A 2.618 2.618 0 0 0 42.466 19.828 Q 42.336 20.22 42.287 20.697 A 5.908 5.908 0 0 0 42.257 21.3 L 42.257 24.787 A 5.973 5.973 0 0 0 42.308 25.604 Q 42.434 26.511 42.873 26.9 A 1.206 1.206 0 0 0 43.703 27.19 A 1.45 1.45 0 0 0 44.13 27.131 Q 44.573 26.995 44.777 26.543 A 1.435 1.435 0 0 0 44.787 26.521 A 3.575 3.575 0 0 0 45.074 25.179 A 4.119 4.119 0 0 0 45.076 25.076 Z M 110.621 12.104 L 110.621 15.754 L 113.692 15.754 L 113.692 12.104 A 9.4 9.4 0 0 0 113.666 11.385 Q 113.613 10.689 113.446 10.249 A 1.836 1.836 0 0 0 113.331 10 A 1.349 1.349 0 0 0 113.024 9.622 Q 112.71 9.358 112.247 9.358 A 1.563 1.563 0 0 0 111.693 9.452 Q 111.316 9.594 111.062 9.949 A 1.723 1.723 0 0 0 111.045 9.973 A 1.801 1.801 0 0 0 110.826 10.431 Q 110.669 10.905 110.632 11.636 A 9.356 9.356 0 0 0 110.621 12.104 Z M 145.742 12.104 L 145.742 15.754 L 148.813 15.754 L 148.813 12.104 A 9.4 9.4 0 0 0 148.788 11.385 Q 148.734 10.689 148.567 10.249 A 1.836 1.836 0 0 0 148.452 10 A 1.349 1.349 0 0 0 148.145 9.622 Q 147.831 9.358 147.368 9.358 A 1.563 1.563 0 0 0 146.815 9.452 Q 146.437 9.594 146.183 9.949 A 1.723 1.723 0 0 0 146.166 9.973 A 1.801 1.801 0 0 0 145.947 10.431 Q 145.79 10.905 145.753 11.636 A 9.356 9.356 0 0 0 145.742 12.104 Z M 209.914 12.104 L 209.914 15.754 L 212.985 15.754 L 212.985 12.104 A 9.4 9.4 0 0 0 212.959 11.385 Q 212.906 10.689 212.739 10.249 A 1.836 1.836 0 0 0 212.624 10 A 1.349 1.349 0 0 0 212.317 9.622 Q 212.003 9.358 211.54 9.358 A 1.563 1.563 0 0 0 210.986 9.452 Q 210.609 9.594 210.355 9.949 A 1.723 1.723 0 0 0 210.338 9.973 A 1.801 1.801 0 0 0 210.119 10.431 Q 209.962 10.905 209.925 11.636 A 9.356 9.356 0 0 0 209.914 12.104 Z" vector-effect="non-scaling-stroke"/></g></svg>