<svg width="386.694" height="33.423" viewBox="0 0 386.694 33.423" xmlns="http://www.w3.org/2000/svg"><g id="svgGroup" stroke-linecap="round" fill-rule="evenodd" font-size="9pt" stroke="#000000" stroke-width="0.15mm" fill="#000000" style="stroke:#000000;stroke-width:0.15mm;fill:#000000"><path d="M 180.881 20.144 L 180.881 23.414 L 193.329 23.414 L 193.329 24.715 L 180.881 24.715 L 180.881 26.016 L 193.329 26.016 L 193.329 27.316 L 180.881 27.316 L 180.881 28.617 L 193.329 28.617 L 193.329 29.918 L 179.58 29.918 L 179.58 3.902 L 193.329 3.902 L 193.329 5.203 L 180.881 5.203 L 180.881 6.504 L 193.329 6.504 L 193.329 7.805 L 180.881 7.805 L 180.881 9.105 L 193.329 9.105 L 193.329 10.406 L 180.881 10.406 L 180.881 13.64 L 192.606 13.64 L 192.606 14.941 L 180.881 14.941 L 180.881 16.242 L 192.606 16.242 L 192.606 17.542 L 180.881 17.542 L 180.881 18.843 L 192.606 18.843 L 192.606 20.144 L 180.881 20.144 Z M 237.212 20.144 L 237.212 23.414 L 249.66 23.414 L 249.66 24.715 L 237.212 24.715 L 237.212 26.016 L 249.66 26.016 L 249.66 27.316 L 237.212 27.316 L 237.212 28.617 L 249.66 28.617 L 249.66 29.918 L 235.911 29.918 L 235.911 3.902 L 249.66 3.902 L 249.66 5.203 L 237.212 5.203 L 237.212 6.504 L 249.66 6.504 L 249.66 7.805 L 237.212 7.805 L 237.212 9.105 L 249.66 9.105 L 249.66 10.406 L 237.212 10.406 L 237.212 13.64 L 248.937 13.64 L 248.937 14.941 L 237.212 14.941 L 237.212 16.242 L 248.937 16.242 L 248.937 17.542 L 237.212 17.542 L 237.212 18.843 L 248.937 18.843 L 248.937 20.144 L 237.212 20.144 Z M 343.226 20.144 L 343.226 23.414 L 355.674 23.414 L 355.674 24.715 L 343.226 24.715 L 343.226 26.016 L 355.674 26.016 L 355.674 27.316 L 343.226 27.316 L 343.226 28.617 L 355.674 28.617 L 355.674 29.918 L 341.925 29.918 L 341.925 3.902 L 355.674 3.902 L 355.674 5.203 L 343.226 5.203 L 343.226 6.504 L 355.674 6.504 L 355.674 7.805 L 343.226 7.805 L 343.226 9.105 L 355.674 9.105 L 355.674 10.406 L 343.226 10.406 L 343.226 13.64 L 354.951 13.64 L 354.951 14.941 L 343.226 14.941 L 343.226 16.242 L 354.951 16.242 L 354.951 17.542 L 343.226 17.542 L 343.226 18.843 L 354.951 18.843 L 354.951 20.144 L 343.226 20.144 Z M 368.627 23.992 L 368.627 22.691 L 376.468 22.691 A 8.866 8.866 0 0 0 380.912 21.535 A 8.746 8.746 0 0 0 384.173 18.319 A 8.77 8.77 0 0 0 385.393 13.767 A 7.978 7.978 0 0 0 384.182 9.53 Q 382.972 7.552 380.903 6.377 A 8.839 8.839 0 0 0 376.468 5.203 L 360.1 5.203 L 360.1 29.918 L 358.799 29.918 L 358.799 3.902 L 376.468 3.902 A 9.93 9.93 0 0 1 380.397 4.706 Q 382.285 5.51 383.658 6.838 Q 385.031 8.166 385.862 9.991 Q 386.694 11.815 386.694 13.767 A 11.667 11.667 0 0 1 386.338 16.706 A 9.447 9.447 0 0 1 385.248 19.286 Q 383.803 21.644 381.364 22.872 L 384.092 29.918 L 382.701 29.918 L 380.117 23.396 A 12.441 12.441 0 0 1 379.659 23.538 Q 379.424 23.607 379.159 23.675 A 21.679 21.679 0 0 1 378.979 23.721 L 381.418 29.918 L 380.027 29.918 L 377.642 23.938 A 11.805 11.805 0 0 1 376.772 23.989 A 13.469 13.469 0 0 1 376.468 23.992 L 378.762 29.918 L 377.389 29.918 L 375.113 23.992 L 373.939 23.992 L 376.125 29.918 L 374.752 29.918 L 372.548 23.992 L 368.627 23.992 Z M 92.067 17.091 L 92.067 29.918 L 90.766 29.918 L 90.766 17.091 Q 90.766 13.405 89.049 10.506 A 11.79 11.79 0 0 0 84.37 6.025 Q 81.407 4.444 77.758 4.444 Q 74.253 4.444 71.344 6.125 A 12.303 12.303 0 0 0 66.774 10.668 Q 65.112 13.532 65.112 16.91 A 12.438 12.438 0 0 0 65.825 21.129 A 11.925 11.925 0 0 0 67.054 23.635 A 10.535 10.535 0 0 0 67.776 24.615 A 13.358 13.358 0 0 0 70.631 27.19 Q 72.248 28.274 74.118 28.834 Q 75.987 29.394 77.921 29.394 Q 80.052 29.394 81.967 28.581 L 81.967 29.918 A 12.34 12.34 0 0 1 77.848 30.623 Q 75.662 30.623 73.594 30.008 Q 71.525 29.394 69.764 28.193 A 14.623 14.623 0 0 1 66.665 25.356 A 12.055 12.055 0 0 1 64.881 22.352 A 14.159 14.159 0 0 1 64.57 21.535 A 13.999 13.999 0 0 1 63.811 16.929 A 15.64 15.64 0 0 1 63.811 16.91 A 13.751 13.751 0 0 1 64.868 11.572 A 13.643 13.643 0 0 1 67.532 7.416 A 13.099 13.099 0 0 1 67.758 7.181 A 13.231 13.231 0 0 1 71.406 4.597 A 15.486 15.486 0 0 1 72.203 4.237 A 14.238 14.238 0 0 1 77.758 3.144 A 15.77 15.77 0 0 1 82.709 3.911 A 14.852 14.852 0 0 1 83.395 4.155 A 14.16 14.16 0 0 1 86.945 6.115 A 12.962 12.962 0 0 1 87.947 6.965 A 12.526 12.526 0 0 1 90.667 10.72 A 14.688 14.688 0 0 1 90.965 11.382 A 14.265 14.265 0 0 1 92.04 16.137 A 16.733 16.733 0 0 1 92.067 17.091 Z M 29.051 16.766 L 29.051 0 L 30.352 0 L 30.352 16.766 A 13.6 13.6 0 0 1 28.31 24.001 A 14.798 14.798 0 0 1 22.773 29.277 A 15.386 15.386 0 0 1 15.176 31.219 Q 11.075 31.219 7.579 29.277 A 14.798 14.798 0 0 1 2.042 24.001 Q 0 20.668 0 16.766 L 0 0 L 1.301 0 L 1.301 16.766 A 12.238 12.238 0 0 0 2.403 21.86 Q 3.505 24.299 5.366 26.061 A 13.824 13.824 0 0 0 9.014 28.525 A 16.091 16.091 0 0 0 9.801 28.87 A 14.124 14.124 0 0 0 15.176 29.918 A 14.124 14.124 0 0 0 20.551 28.87 A 14.616 14.616 0 0 0 23.883 26.995 A 13.145 13.145 0 0 0 24.986 26.061 Q 26.847 24.299 27.949 21.86 A 12.238 12.238 0 0 0 29.051 16.766 Z M 315.295 24.173 L 315.295 22.872 L 320.805 22.872 A 9.185 9.185 0 0 0 325.331 21.716 A 8.851 8.851 0 0 0 328.664 18.5 A 8.624 8.624 0 0 0 329.911 13.947 A 8.136 8.136 0 0 0 328.673 9.629 A 9.184 9.184 0 0 0 325.331 6.405 Q 323.226 5.203 320.805 5.203 L 306.497 5.203 L 306.497 29.918 L 305.196 29.918 L 305.196 3.902 L 320.805 3.902 Q 322.865 3.902 324.789 4.715 A 10.917 10.917 0 0 1 327.646 6.46 A 10.203 10.203 0 0 1 328.122 6.892 Q 329.531 8.256 330.372 10.108 A 9.195 9.195 0 0 1 331.212 13.947 A 11.399 11.399 0 0 1 330.862 16.81 A 10.006 10.006 0 0 1 330.381 18.229 Q 329.549 20.18 328.122 21.472 Q 326.695 22.764 324.807 23.468 A 11.351 11.351 0 0 1 320.805 24.173 L 315.295 24.173 Z M 26.449 16.766 L 26.449 0 L 27.75 0 L 27.75 16.766 A 10.942 10.942 0 0 1 26.747 21.364 Q 25.745 23.559 24.065 25.148 A 12.375 12.375 0 0 1 20.766 27.368 A 14.442 14.442 0 0 1 20.054 27.678 A 12.926 12.926 0 0 1 15.176 28.617 A 12.926 12.926 0 0 1 10.298 27.678 A 13.112 13.112 0 0 1 7.313 26.013 A 11.762 11.762 0 0 1 6.287 25.148 A 12.033 12.033 0 0 1 3.604 21.364 A 10.942 10.942 0 0 1 2.602 16.766 L 2.602 0 L 3.903 0 L 3.903 16.766 A 9.788 9.788 0 0 0 5.42 22.05 A 10.943 10.943 0 0 0 9.53 25.898 A 11.574 11.574 0 0 0 15.176 27.316 A 11.574 11.574 0 0 0 20.822 25.898 A 10.943 10.943 0 0 0 24.932 22.05 A 9.788 9.788 0 0 0 26.449 16.766 Z M 89.465 17.091 L 89.465 29.918 L 88.164 29.918 L 88.164 17.091 A 11.084 11.084 0 0 0 87.756 14.033 A 9.442 9.442 0 0 0 86.8 11.806 Q 85.436 9.503 83.07 8.274 A 11.005 11.005 0 0 0 78.864 7.091 A 13.375 13.375 0 0 0 77.758 7.046 A 10.084 10.084 0 0 0 72.645 8.374 Q 70.333 9.702 69.023 11.96 Q 67.713 14.218 67.713 16.91 A 10.923 10.923 0 0 0 68.037 19.61 A 9.44 9.44 0 0 0 68.562 21.129 A 9.286 9.286 0 0 0 69.815 23.2 A 8.074 8.074 0 0 0 70.848 24.263 A 10.677 10.677 0 0 0 74.118 26.169 A 10.989 10.989 0 0 0 77.957 26.847 A 10.041 10.041 0 0 0 81.967 25.998 L 81.967 27.316 A 12.095 12.095 0 0 1 79.358 27.993 A 10.456 10.456 0 0 1 77.921 28.093 A 11.933 11.933 0 0 1 72.175 26.684 A 10.848 10.848 0 0 1 67.984 22.691 A 10.862 10.862 0 0 1 66.414 17.109 A 12.897 12.897 0 0 1 66.412 16.91 A 10.962 10.962 0 0 1 67.289 12.574 Q 68.165 10.515 69.664 9.015 A 10.931 10.931 0 0 1 72.743 6.869 A 12.718 12.718 0 0 1 73.278 6.63 A 11.481 11.481 0 0 1 77.758 5.745 A 13.356 13.356 0 0 1 81.549 6.268 A 11.756 11.756 0 0 1 83.729 7.154 A 10.475 10.475 0 0 1 87.929 11.165 A 11.117 11.117 0 0 1 89.42 15.969 A 13.638 13.638 0 0 1 89.465 17.091 Z M 368.627 21.391 L 368.627 20.09 L 376.468 20.09 Q 379.07 20.09 380.93 18.319 A 5.91 5.91 0 0 0 382.779 14.216 A 7.963 7.963 0 0 0 382.791 13.767 A 5.43 5.43 0 0 0 381.339 10.061 A 7.425 7.425 0 0 0 380.894 9.602 A 6.233 6.233 0 0 0 376.468 7.805 L 362.701 7.805 L 362.701 29.918 L 361.401 29.918 L 361.401 6.504 L 376.468 6.504 A 7.486 7.486 0 0 1 381.816 8.681 A 7.698 7.698 0 0 1 383.372 10.726 A 6.567 6.567 0 0 1 384.092 13.767 Q 384.092 17.019 381.843 19.205 Q 379.593 21.391 376.468 21.391 L 368.627 21.391 Z M 315.295 21.571 L 315.295 20.271 L 320.805 20.271 A 6.524 6.524 0 0 0 325.394 18.5 A 5.867 5.867 0 0 0 327.304 14.227 A 7.866 7.866 0 0 0 327.309 13.947 A 5.6 5.6 0 0 0 325.815 10.129 A 7.641 7.641 0 0 0 325.358 9.656 Q 323.407 7.805 320.805 7.805 L 309.098 7.805 L 309.098 29.918 L 307.798 29.918 L 307.798 6.504 L 320.805 6.504 A 7.659 7.659 0 0 1 326.279 8.735 Q 328.61 10.966 328.61 13.947 Q 328.61 17.199 326.307 19.385 Q 324.003 21.571 320.805 21.571 L 315.295 21.571 Z M 23.848 16.766 L 23.848 0 L 25.149 0 L 25.149 16.766 A 8.397 8.397 0 0 1 24.354 20.352 A 9.445 9.445 0 0 1 22.222 23.306 Q 20.885 24.552 19.042 25.284 A 10.381 10.381 0 0 1 15.176 26.016 Q 13.153 26.016 11.31 25.284 A 10.396 10.396 0 0 1 8.922 23.966 A 9.352 9.352 0 0 1 8.13 23.306 A 9.445 9.445 0 0 1 5.998 20.352 A 8.397 8.397 0 0 1 5.203 16.766 L 5.203 0 L 6.504 0 L 6.504 16.766 A 7.286 7.286 0 0 0 7.669 20.749 A 8.301 8.301 0 0 0 10.831 23.649 A 9.081 9.081 0 0 0 15.176 24.715 A 9.081 9.081 0 0 0 19.521 23.649 A 8.301 8.301 0 0 0 22.683 20.749 Q 23.848 18.916 23.848 16.766 Z M 86.863 17.091 L 86.863 29.918 L 85.563 29.918 L 85.563 17.091 Q 85.563 13.676 83.377 11.662 A 7.514 7.514 0 0 0 79.299 9.758 A 10.358 10.358 0 0 0 77.758 9.647 Q 74.578 9.647 72.446 11.761 A 6.967 6.967 0 0 0 70.315 16.816 A 8.583 8.583 0 0 0 70.315 16.91 A 9.093 9.093 0 0 0 70.496 18.761 A 7.322 7.322 0 0 0 70.956 20.216 A 6.692 6.692 0 0 0 71.767 21.608 A 5.556 5.556 0 0 0 72.699 22.565 A 7.984 7.984 0 0 0 75.165 23.911 A 8.941 8.941 0 0 0 78.035 24.372 A 10.329 10.329 0 0 0 78.047 24.372 A 8.454 8.454 0 0 0 81.967 23.414 L 81.967 24.787 A 10.315 10.315 0 0 1 78.711 25.576 A 9.691 9.691 0 0 1 78.029 25.6 Q 76.24 25.6 74.632 25.049 Q 73.025 24.498 71.76 23.441 Q 70.495 22.384 69.755 20.695 A 8.801 8.801 0 0 1 69.079 18.119 A 10.918 10.918 0 0 1 69.014 16.91 A 8.216 8.216 0 0 1 71.456 10.927 A 9.921 9.921 0 0 1 71.534 10.849 A 8.468 8.468 0 0 1 77.643 8.347 A 10.884 10.884 0 0 1 77.758 8.347 Q 80.36 8.347 82.419 9.404 A 7.924 7.924 0 0 1 85.671 12.466 A 8.503 8.503 0 0 1 86.802 15.935 A 10.668 10.668 0 0 1 86.863 17.091 Z M 205.722 29.918 L 195.424 3.902 L 196.834 3.902 L 206.427 28.166 L 216.02 3.902 L 217.411 3.902 L 207.132 29.918 L 205.722 29.918 Z M 260.59 29.918 L 260.59 3.902 L 261.891 3.902 L 261.891 23.414 L 271.484 23.414 L 271.484 24.715 L 261.891 24.715 L 261.891 26.016 L 271.484 26.016 L 271.484 27.316 L 261.891 27.316 L 261.891 28.617 L 271.484 28.617 L 271.484 29.918 L 260.59 29.918 Z M 21.246 16.766 L 21.246 0 L 22.547 0 L 22.547 16.766 A 6.035 6.035 0 0 1 20.642 21.216 A 8.056 8.056 0 0 1 20.379 21.463 A 7.509 7.509 0 0 1 15.176 23.414 A 7.509 7.509 0 0 1 9.973 21.463 A 6.788 6.788 0 0 1 8.491 19.603 A 5.961 5.961 0 0 1 7.805 16.766 L 7.805 0 L 9.106 0 L 9.106 16.766 A 4.802 4.802 0 0 0 10.644 20.317 A 6.558 6.558 0 0 0 10.885 20.542 A 6.229 6.229 0 0 0 15.02 22.112 A 7.917 7.917 0 0 0 15.176 22.113 A 6.666 6.666 0 0 0 17.638 21.67 A 6.15 6.15 0 0 0 19.467 20.542 A 5.53 5.53 0 0 0 20.651 19.103 A 4.705 4.705 0 0 0 21.246 16.766 Z M 368.627 18.789 L 368.627 17.488 L 376.468 17.488 A 4.101 4.101 0 0 0 377.925 17.237 A 3.708 3.708 0 0 0 379.106 16.513 A 3.183 3.183 0 0 0 380.094 14.748 A 4.778 4.778 0 0 0 380.19 13.767 A 2.881 2.881 0 0 0 379.554 11.968 A 4.172 4.172 0 0 0 379.06 11.436 A 3.736 3.736 0 0 0 376.468 10.406 L 365.303 10.406 L 365.303 29.918 L 364.002 29.918 L 364.002 9.105 L 376.468 9.105 A 4.987 4.987 0 0 1 379.982 10.515 A 5.127 5.127 0 0 1 380.952 11.719 A 4.07 4.07 0 0 1 381.49 13.767 A 5.818 5.818 0 0 1 381.276 15.387 A 4.408 4.408 0 0 1 380.027 17.425 Q 378.564 18.789 376.468 18.789 L 368.627 18.789 Z M 155.66 29.918 L 138.985 29.918 L 138.985 0 L 155.66 0 A 11.755 11.755 0 0 1 162.237 2.005 A 14.297 14.297 0 0 1 166.874 7.036 A 16.914 16.914 0 0 1 167.105 7.461 Q 168.921 10.912 168.921 14.959 A 15.931 15.931 0 0 1 167.846 20.767 A 16.42 16.42 0 0 1 166.152 24.041 A 14.218 14.218 0 0 1 164.983 25.546 A 13.478 13.478 0 0 1 160.746 28.735 Q 158.298 29.918 155.66 29.918 Z M 315.295 18.97 L 315.295 17.669 L 320.805 17.669 A 4.5 4.5 0 0 0 322.288 17.433 A 3.934 3.934 0 0 0 323.57 16.693 A 3.178 3.178 0 0 0 324.637 14.783 A 4.689 4.689 0 0 0 324.708 13.947 A 3.038 3.038 0 0 0 324.023 12.032 A 4.407 4.407 0 0 0 323.515 11.49 A 4.217 4.217 0 0 0 322.22 10.669 A 3.834 3.834 0 0 0 320.805 10.406 L 311.7 10.406 L 311.7 29.918 L 310.399 29.918 L 310.399 9.105 L 320.805 9.105 A 5.16 5.16 0 0 1 324.446 10.569 A 5.315 5.315 0 0 1 325.454 11.826 A 4.238 4.238 0 0 1 326.008 13.947 A 5.603 5.603 0 0 1 325.777 15.598 A 4.384 4.384 0 0 1 324.491 17.606 A 5.285 5.285 0 0 1 320.974 18.968 A 6.773 6.773 0 0 1 320.805 18.97 L 315.295 18.97 Z M 140.286 1.301 L 140.286 28.617 L 155.66 28.617 A 10.237 10.237 0 0 0 160.231 27.533 A 12.213 12.213 0 0 0 164.043 24.625 A 13.519 13.519 0 0 0 166.077 21.523 A 16.281 16.281 0 0 0 166.618 20.261 Q 167.584 17.723 167.584 14.959 A 14.703 14.703 0 0 0 166.618 9.666 A 15.134 15.134 0 0 0 165.116 6.71 A 13.033 13.033 0 0 0 164.043 5.302 A 12.15 12.15 0 0 0 160.231 2.385 A 10.237 10.237 0 0 0 155.66 1.301 L 140.286 1.301 Z M 48.689 29.918 L 33.676 29.918 L 33.676 3.902 L 48.689 3.902 A 12.442 12.442 0 0 1 55.094 5.646 Q 58.066 7.389 59.827 10.379 Q 61.589 13.369 61.589 16.874 A 12.742 12.742 0 0 1 60.55 21.951 A 13.41 13.41 0 0 1 58.447 25.379 A 12.446 12.446 0 0 1 57.768 26.115 A 13.128 13.128 0 0 1 53.658 28.88 A 14.997 14.997 0 0 1 53.639 28.888 A 12.363 12.363 0 0 1 48.689 29.918 Z M 103.539 19.819 L 111.091 3.902 L 112.391 3.902 L 104.207 21.138 L 104.207 29.918 L 102.906 29.918 L 102.906 21.138 L 94.18 3.902 L 95.481 3.902 L 103.539 19.819 Z M 273.67 16.91 A 13.917 13.917 0 0 0 274.808 22.466 Q 275.946 25.112 277.862 27.027 A 13.737 13.737 0 0 0 278.486 27.614 A 14.641 14.641 0 0 0 282.423 30.081 A 13.917 13.917 0 0 0 287.979 31.219 A 13.917 13.917 0 0 0 293.534 30.081 Q 296.181 28.942 298.096 27.027 A 13.737 13.737 0 0 0 298.682 26.403 A 14.641 14.641 0 0 0 301.149 22.466 A 13.917 13.917 0 0 0 302.287 16.91 A 13.917 13.917 0 0 0 301.149 11.355 Q 300.011 8.708 298.096 6.793 A 13.737 13.737 0 0 0 297.472 6.206 A 14.641 14.641 0 0 0 293.534 3.74 A 13.917 13.917 0 0 0 287.979 2.602 A 13.917 13.917 0 0 0 282.423 3.74 Q 279.777 4.878 277.862 6.793 A 13.737 13.737 0 0 0 277.275 7.417 A 14.641 14.641 0 0 0 274.808 11.355 A 13.917 13.917 0 0 0 273.67 16.91 Z M 82.961 29.918 L 82.961 17.091 A 6.008 6.008 0 0 0 82.792 15.625 A 4.073 4.073 0 0 0 81.534 13.514 A 4.88 4.88 0 0 0 79.327 12.412 A 7.134 7.134 0 0 0 77.758 12.249 A 4.752 4.752 0 0 0 74.343 13.622 A 4.665 4.665 0 0 0 73.262 15.156 A 4.426 4.426 0 0 0 72.916 16.91 A 6.981 6.981 0 0 0 72.988 17.938 A 5.309 5.309 0 0 0 73.205 18.852 A 4.832 4.832 0 0 0 73.534 19.616 A 3.655 3.655 0 0 0 73.991 20.28 Q 74.488 20.849 75.174 21.219 A 5.44 5.44 0 0 0 76.611 21.752 Q 77.361 21.915 78.21 21.915 A 7.204 7.204 0 0 0 81.967 20.903 L 81.967 22.204 A 7.993 7.993 0 0 1 78.192 23.125 A 8.551 8.551 0 0 1 76.327 22.927 A 7.667 7.667 0 0 1 75.744 22.773 A 6.646 6.646 0 0 1 73.657 21.707 A 4.58 4.58 0 0 1 72.528 20.444 A 5.846 5.846 0 0 1 72.166 19.756 Q 71.615 18.518 71.615 16.91 A 5.831 5.831 0 0 1 72.266 14.153 A 5.991 5.991 0 0 1 73.368 12.683 Q 75.12 10.948 77.758 10.948 A 8.432 8.432 0 0 1 79.822 11.188 A 6.057 6.057 0 0 1 82.464 12.583 A 5.373 5.373 0 0 1 84.146 15.712 A 7.848 7.848 0 0 1 84.262 17.091 L 84.262 29.918 L 82.961 29.918 Z M 155.66 27.316 L 141.587 27.316 L 141.587 2.602 L 155.66 2.602 A 9.192 9.192 0 0 1 160.918 4.255 A 11.486 11.486 0 0 1 164.413 8.046 A 13.813 13.813 0 0 1 164.802 8.762 A 13.521 13.521 0 0 1 166.247 14.959 A 13.521 13.521 0 0 1 164.802 21.156 A 12.33 12.33 0 0 1 162.607 24.255 A 11.063 11.063 0 0 1 160.918 25.663 A 9.192 9.192 0 0 1 155.66 27.316 Z M 34.977 5.203 L 34.977 28.617 L 48.689 28.617 A 11.132 11.132 0 0 0 54.434 27.054 A 11.718 11.718 0 0 0 58.671 22.782 A 11.518 11.518 0 0 0 60.252 16.874 A 11.371 11.371 0 0 0 58.671 11.03 Q 57.09 8.329 54.425 6.766 Q 51.76 5.203 48.689 5.203 L 34.977 5.203 Z M 367.904 13.008 L 367.904 29.918 L 366.604 29.918 L 366.604 11.707 L 376.468 11.707 A 2.806 2.806 0 0 1 377.376 11.849 A 2.43 2.43 0 0 1 378.184 12.312 A 2.161 2.161 0 0 1 378.637 12.839 A 1.772 1.772 0 0 1 378.889 13.767 A 3.485 3.485 0 0 1 378.769 14.725 Q 378.461 15.799 377.364 16.084 A 3.567 3.567 0 0 1 376.468 16.188 L 368.627 16.188 L 368.627 14.887 L 376.468 14.887 A 1.613 1.613 0 0 0 376.911 14.831 Q 377.588 14.637 377.588 13.767 A 0.547 0.547 0 0 0 377.452 13.407 Q 377.375 13.315 377.254 13.234 A 1.318 1.318 0 0 0 376.647 13.017 A 1.675 1.675 0 0 0 376.468 13.008 L 367.904 13.008 Z M 276.001 11.861 A 12.729 12.729 0 0 0 274.971 16.91 A 12.729 12.729 0 0 0 276.001 21.96 A 13.233 13.233 0 0 0 278.24 25.547 A 12.424 12.424 0 0 0 278.774 26.115 A 12.965 12.965 0 0 0 282.63 28.757 A 14.796 14.796 0 0 0 282.929 28.888 A 12.729 12.729 0 0 0 287.979 29.918 A 12.729 12.729 0 0 0 293.028 28.888 A 13.233 13.233 0 0 0 296.615 26.649 A 12.424 12.424 0 0 0 297.184 26.115 A 12.965 12.965 0 0 0 299.825 22.259 A 14.796 14.796 0 0 0 299.957 21.96 A 12.729 12.729 0 0 0 300.987 16.91 A 12.729 12.729 0 0 0 299.957 11.861 A 13.233 13.233 0 0 0 297.717 8.274 A 12.424 12.424 0 0 0 297.184 7.705 A 12.965 12.965 0 0 0 293.327 5.064 A 14.796 14.796 0 0 0 293.028 4.932 A 12.729 12.729 0 0 0 287.979 3.902 A 12.729 12.729 0 0 0 282.929 4.932 A 13.233 13.233 0 0 0 279.342 7.172 A 12.424 12.424 0 0 0 278.774 7.705 A 12.965 12.965 0 0 0 276.132 11.562 A 14.796 14.796 0 0 0 276.001 11.861 Z M 142.887 3.902 L 142.887 26.016 L 155.66 26.016 A 7.874 7.874 0 0 0 160.258 24.534 A 10.195 10.195 0 0 0 163.186 21.35 A 12.384 12.384 0 0 0 163.646 20.505 A 12.279 12.279 0 0 0 164.91 15.053 A 14.172 14.172 0 0 0 164.91 14.959 A 12.316 12.316 0 0 0 163.646 9.422 A 11.133 11.133 0 0 0 161.838 6.765 A 9.757 9.757 0 0 0 160.249 5.384 A 8.161 8.161 0 0 0 157.329 4.081 A 7.755 7.755 0 0 0 155.66 3.902 L 142.887 3.902 Z M 48.689 27.316 L 36.278 27.316 L 36.278 6.504 L 48.689 6.504 A 9.836 9.836 0 0 1 53.775 7.895 Q 56.132 9.286 57.524 11.68 A 10.159 10.159 0 0 1 58.915 16.874 A 10.323 10.323 0 0 1 57.524 22.122 Q 56.132 24.534 53.775 25.925 A 9.836 9.836 0 0 1 48.689 27.316 Z M 314.301 13.008 L 314.301 29.918 L 313.001 29.918 L 313.001 11.707 L 320.805 11.707 A 2.872 2.872 0 0 1 321.896 11.91 A 2.688 2.688 0 0 1 322.639 12.366 A 2.364 2.364 0 0 1 323.129 12.934 A 1.922 1.922 0 0 1 323.407 13.947 Q 323.407 16.368 320.805 16.368 L 315.295 16.368 L 315.295 15.067 L 320.805 15.067 A 2.198 2.198 0 0 0 321.296 15.018 Q 322.106 14.831 322.106 13.947 A 0.75 0.75 0 0 0 321.87 13.399 A 1.152 1.152 0 0 0 321.727 13.279 A 1.441 1.441 0 0 0 321.101 13.03 A 1.92 1.92 0 0 0 320.805 13.008 L 314.301 13.008 Z M 276.272 16.91 A 11.425 11.425 0 0 0 277.202 21.463 A 13.378 13.378 0 0 0 277.351 21.798 A 11.68 11.68 0 0 0 279.695 25.194 Q 281.258 26.756 283.426 27.687 A 11.425 11.425 0 0 0 287.979 28.617 A 11.425 11.425 0 0 0 292.531 27.687 A 13.378 13.378 0 0 0 292.866 27.538 A 11.68 11.68 0 0 0 296.262 25.194 Q 297.825 23.631 298.755 21.463 A 11.425 11.425 0 0 0 299.686 16.91 A 11.425 11.425 0 0 0 298.755 12.357 A 13.378 13.378 0 0 0 298.606 12.022 A 11.68 11.68 0 0 0 296.262 8.627 Q 294.699 7.064 292.531 6.134 A 11.425 11.425 0 0 0 287.979 5.203 A 11.425 11.425 0 0 0 283.426 6.134 A 13.378 13.378 0 0 0 283.091 6.283 A 11.68 11.68 0 0 0 279.695 8.627 Q 278.132 10.189 277.202 12.357 A 11.425 11.425 0 0 0 276.272 16.91 Z M 121.424 33.423 L 129.789 0.018 L 131.144 0.018 L 122.779 33.423 L 121.424 33.423 Z M 124.134 33.423 L 132.499 0.018 L 133.854 0.018 L 125.471 33.423 L 124.134 33.423 Z M 126.826 33.423 L 135.209 0.018 L 136.546 0.018 L 128.163 33.423 L 126.826 33.423 Z M 155.66 24.715 L 144.188 24.715 L 144.188 5.203 L 155.66 5.203 A 6.623 6.623 0 0 1 159.481 6.421 A 8.095 8.095 0 0 1 159.599 6.504 A 8.701 8.701 0 0 1 161.992 9.115 A 10.71 10.71 0 0 1 162.498 10.054 A 11.145 11.145 0 0 1 163.569 14.629 A 12.939 12.939 0 0 1 163.573 14.959 Q 163.573 17.597 162.498 19.855 A 9.818 9.818 0 0 1 161.075 22.066 A 8.343 8.343 0 0 1 159.599 23.414 A 6.93 6.93 0 0 1 157.213 24.53 A 6.511 6.511 0 0 1 155.66 24.715 Z M 37.578 7.805 L 37.578 26.016 L 48.689 26.016 A 8.526 8.526 0 0 0 53.115 24.805 A 8.974 8.974 0 0 0 56.367 21.481 A 9.111 9.111 0 0 0 57.578 16.874 A 8.912 8.912 0 0 0 56.367 12.339 Q 55.157 10.244 53.106 9.024 Q 51.056 7.805 48.689 7.805 L 37.578 7.805 Z M 278.394 12.872 A 10.172 10.172 0 0 0 277.572 16.91 A 10.172 10.172 0 0 0 278.394 20.948 Q 279.216 22.872 280.617 24.272 Q 282.017 25.672 283.941 26.494 A 10.172 10.172 0 0 0 287.979 27.316 A 10.172 10.172 0 0 0 292.017 26.494 Q 293.941 25.672 295.341 24.272 Q 296.741 22.872 297.563 20.948 A 10.172 10.172 0 0 0 298.385 16.91 A 10.172 10.172 0 0 0 297.563 12.872 Q 296.741 10.948 295.341 9.548 Q 293.941 8.148 292.017 7.326 A 10.172 10.172 0 0 0 287.979 6.504 A 10.172 10.172 0 0 0 283.941 7.326 Q 282.017 8.148 280.617 9.548 Q 279.216 10.948 278.394 12.872 Z M 145.489 6.504 L 145.489 23.414 L 155.66 23.414 A 5.379 5.379 0 0 0 159.409 21.898 A 8.073 8.073 0 0 0 160.294 20.93 A 9.13 9.13 0 0 0 162.189 16.024 A 11.735 11.735 0 0 0 162.237 14.959 A 10.322 10.322 0 0 0 161.733 11.71 A 9.588 9.588 0 0 0 161.342 10.713 Q 160.448 8.762 158.939 7.633 A 5.64 5.64 0 0 0 157.082 6.698 A 5.223 5.223 0 0 0 155.66 6.504 L 145.489 6.504 Z M 48.689 24.715 L 38.879 24.715 L 38.879 9.105 L 48.689 9.105 A 7.157 7.157 0 0 1 53.905 11.285 A 9.126 9.126 0 0 1 54.01 11.391 Q 56.241 13.676 56.241 16.874 Q 56.241 20.144 54.019 22.429 Q 51.797 24.715 48.689 24.715 Z M 214.123 29.918 L 224.403 3.902 L 225.812 3.902 L 215.514 29.918 L 214.123 29.918 Z M 208.523 29.918 L 218.802 3.902 L 220.212 3.902 L 209.914 29.918 L 208.523 29.918 Z M 211.323 29.918 L 221.621 3.902 L 223.012 3.902 L 212.714 29.918 L 211.323 29.918 Z M 110.711 21.138 L 118.895 3.902 L 120.196 3.902 L 112.012 21.138 L 112.012 29.918 L 110.711 29.918 L 110.711 21.138 Z M 108.11 21.138 L 116.294 3.902 L 117.594 3.902 L 109.41 21.138 L 109.41 29.918 L 108.11 29.918 L 108.11 21.138 Z M 105.508 21.138 L 113.692 3.902 L 114.993 3.902 L 106.809 21.138 L 106.809 29.918 L 105.508 29.918 L 105.508 21.138 Z M 280.093 21.481 Q 278.873 19.385 278.873 16.91 Q 278.873 14.435 280.093 12.339 Q 281.312 10.244 283.408 9.024 Q 285.504 7.805 287.979 7.805 Q 290.454 7.805 292.549 9.024 Q 294.645 10.244 295.865 12.339 Q 297.084 14.435 297.084 16.91 Q 297.084 19.385 295.865 21.481 Q 294.645 23.577 292.549 24.796 Q 290.454 26.016 287.979 26.016 Q 285.504 26.016 283.408 24.796 Q 281.312 23.577 280.093 21.481 Z M 178.279 3.902 L 178.279 29.918 L 176.979 29.918 L 176.979 3.902 L 178.279 3.902 Z M 175.678 3.902 L 175.678 29.918 L 174.377 29.918 L 174.377 3.902 L 175.678 3.902 Z M 173.076 3.902 L 173.076 29.918 L 171.776 29.918 L 171.776 3.902 L 173.076 3.902 Z M 234.611 3.902 L 234.611 29.918 L 233.31 29.918 L 233.31 3.902 L 234.611 3.902 Z M 232.009 3.902 L 232.009 29.918 L 230.708 29.918 L 230.708 3.902 L 232.009 3.902 Z M 229.407 3.902 L 229.407 29.918 L 228.107 29.918 L 228.107 3.902 L 229.407 3.902 Z M 252.785 29.918 L 252.785 3.902 L 254.086 3.902 L 254.086 29.918 L 252.785 29.918 Z M 257.988 29.918 L 257.988 3.902 L 259.289 3.902 L 259.289 29.918 L 257.988 29.918 Z M 255.387 29.918 L 255.387 3.902 L 256.688 3.902 L 256.688 29.918 L 255.387 29.918 Z M 340.624 3.902 L 340.624 29.918 L 339.323 29.918 L 339.323 3.902 L 340.624 3.902 Z M 338.023 3.902 L 338.023 29.918 L 336.722 29.918 L 336.722 3.902 L 338.023 3.902 Z M 335.421 3.902 L 335.421 29.918 L 334.12 29.918 L 334.12 3.902 L 335.421 3.902 Z M 155.66 22.113 L 146.79 22.113 L 146.79 7.805 L 155.66 7.805 A 4.103 4.103 0 0 1 158.485 8.934 A 6.452 6.452 0 0 1 159.355 9.909 A 7.936 7.936 0 0 1 160.826 13.711 A 10.271 10.271 0 0 1 160.9 14.959 A 9.473 9.473 0 0 1 160.566 17.526 A 7.639 7.639 0 0 1 159.355 20.018 A 6.188 6.188 0 0 1 158.29 21.156 A 4.062 4.062 0 0 1 155.66 22.113 Z M 40.18 10.406 L 40.18 23.414 L 48.689 23.414 A 5.838 5.838 0 0 0 52.965 21.625 A 7.401 7.401 0 0 0 53.079 21.508 Q 54.904 19.602 54.904 16.874 A 6.339 6.339 0 0 0 53.07 12.303 A 6.238 6.238 0 0 0 51.024 10.866 A 5.905 5.905 0 0 0 48.689 10.406 L 40.18 10.406 Z M 282.459 11.4 A 7.521 7.521 0 0 0 280.175 16.81 A 8.989 8.989 0 0 0 280.174 16.91 A 7.519 7.519 0 0 0 282.389 22.348 A 9.185 9.185 0 0 0 282.459 22.42 A 7.496 7.496 0 0 0 287.878 24.714 A 9.05 9.05 0 0 0 287.979 24.715 A 7.496 7.496 0 0 0 293.426 22.492 A 9.093 9.093 0 0 0 293.498 22.42 A 7.521 7.521 0 0 0 295.783 17.01 A 8.989 8.989 0 0 0 295.783 16.91 A 7.519 7.519 0 0 0 293.569 11.472 A 9.185 9.185 0 0 0 293.498 11.4 A 7.496 7.496 0 0 0 288.08 9.106 A 9.05 9.05 0 0 0 287.979 9.105 A 7.496 7.496 0 0 0 282.531 11.329 A 9.093 9.093 0 0 0 282.459 11.4 Z M 206.59 25.076 L 198.225 3.902 L 199.616 3.902 L 207.33 23.414 L 206.59 25.076 Z M 148.091 9.105 L 148.091 20.813 L 155.66 20.813 Q 157.218 20.813 158.344 19.201 A 6.209 6.209 0 0 0 158.415 19.096 Q 159.563 17.38 159.563 14.959 A 8.636 8.636 0 0 0 159.343 12.965 A 6.514 6.514 0 0 0 158.415 10.813 A 4.967 4.967 0 0 0 157.694 9.95 Q 156.791 9.105 155.66 9.105 L 148.091 9.105 Z M 281.475 16.994 A 6.258 6.258 0 0 0 283.381 21.508 A 7.587 7.587 0 0 0 283.441 21.567 A 6.258 6.258 0 0 0 287.979 23.414 A 7.554 7.554 0 0 0 288.063 23.414 A 6.258 6.258 0 0 0 292.577 21.508 A 7.587 7.587 0 0 0 292.636 21.448 A 6.258 6.258 0 0 0 294.483 16.91 A 7.554 7.554 0 0 0 294.482 16.826 A 6.258 6.258 0 0 0 292.577 12.312 A 7.587 7.587 0 0 0 292.517 12.253 A 6.258 6.258 0 0 0 287.979 10.406 A 7.554 7.554 0 0 0 287.895 10.407 A 6.258 6.258 0 0 0 283.381 12.312 A 7.587 7.587 0 0 0 283.322 12.372 A 6.258 6.258 0 0 0 281.475 16.91 A 7.554 7.554 0 0 0 281.475 16.994 Z M 48.689 22.113 L 41.481 22.113 L 41.481 11.707 L 48.689 11.707 A 4.548 4.548 0 0 1 52.018 13.108 A 5.878 5.878 0 0 1 52.131 13.225 A 5.12 5.12 0 0 1 53.567 16.874 A 5.631 5.631 0 0 1 53.21 18.906 A 5.133 5.133 0 0 1 52.14 20.596 A 4.823 4.823 0 0 1 50.537 21.746 A 4.61 4.61 0 0 1 48.689 22.113 Z M 208.035 21.644 L 201.025 3.902 L 202.434 3.902 L 208.721 19.855 L 208.035 21.644 Z M 284.302 13.234 A 5.006 5.006 0 0 0 282.776 16.843 A 6.013 6.013 0 0 0 282.776 16.91 A 5.005 5.005 0 0 0 284.255 20.539 A 6.091 6.091 0 0 0 284.302 20.587 A 5.006 5.006 0 0 0 287.912 22.113 A 6.013 6.013 0 0 0 287.979 22.113 A 5.005 5.005 0 0 0 291.607 20.634 A 6.091 6.091 0 0 0 291.655 20.587 A 5.006 5.006 0 0 0 293.181 16.977 A 6.013 6.013 0 0 0 293.182 16.91 A 5.005 5.005 0 0 0 291.703 13.282 A 6.091 6.091 0 0 0 291.655 13.234 A 5.006 5.006 0 0 0 288.046 11.707 A 6.013 6.013 0 0 0 287.979 11.707 A 5.005 5.005 0 0 0 284.35 13.186 A 6.091 6.091 0 0 0 284.302 13.234 Z M 103.9 17.597 L 96.8 3.902 L 98.101 3.902 L 104.55 16.169 L 103.9 17.597 Z M 209.408 18.066 L 203.825 3.902 L 205.216 3.902 L 210.094 16.242 L 209.408 18.066 Z M 42.781 13.008 L 42.781 20.813 L 48.689 20.813 A 3.24 3.24 0 0 0 51.076 19.795 A 4.268 4.268 0 0 0 51.191 19.674 A 3.946 3.946 0 0 0 52.224 17.131 A 5.13 5.13 0 0 0 52.23 16.874 A 3.906 3.906 0 0 0 51.191 14.146 A 3.585 3.585 0 0 0 50.163 13.348 A 3.219 3.219 0 0 0 48.689 13.008 L 42.781 13.008 Z M 105.183 14.742 L 99.402 3.902 L 100.72 3.902 L 105.851 13.315 L 105.183 14.742 Z M 106.502 11.906 L 102.039 3.902 L 103.34 3.902 L 107.152 10.479 L 106.502 11.906 Z" vector-effect="non-scaling-stroke"/></g></svg>